<svg xmlns="http://www.w3.org/2000/svg" viewBox="0 0 351.53 64.57" fill="#FFFFFF">
  <path d="M125.93 12.52v39.66h7.04V33.5l14.94 18.68h8.67L140.8 32.25l14.43-19.73h-8.38l-13.88 19.26V12.52h-7.04zM56.05 12.52L44.77 42.09 33.07 12.52H24.4L40.27 52.18h8.52L64.43 12.52h-8.38zM87.34 12.52H70.38v39.66h7.04V34.21h9.92c8.1 0 13.02-4.94 13.02-10.89 0-5.95-4.92-10.8-13.02-10.8zm-.71 15.34H77.42V18.8h9.21c4.07 0 6.33 2.13 6.33 4.54 0 2.4-2.26 4.52-6.33 4.52zM158.28 52.18h7.04V12.52h-7.04v39.66zM195.44 10.56c-12.17 0-21.02 9.09-21.02 20.87 0 12.02 8.87 21.14 21.02 21.14 11.95 0 20.86-9.15 20.86-21.14 0-11.8-8.91-20.87-20.86-20.87zm0 35.56c-8.21 0-13.7-6.22-13.7-14.69 0-8.31 5.41-14.5 13.7-14.5 8.15 0 13.54 6.19 13.54 14.5 0 8.47-5.39 14.69-13.54 14.69zM247.32 12.52L236.04 42.09l-11.7-29.57h-8.67l15.87 39.66h8.52l15.64-39.66h-8.38zM290.27 52.18h7.04V12.52h-7.04v39.66zM323.01 12.52l-18.73 39.66h7.58l4.06-8.88h20.23l4.15 8.88h7.72l-18.86-39.66h-6.15zm-4.22 24.5l7.17-15.7 7.31 15.7h-14.48z"/>
  <path d="M0 33.44v18.74h8.38v-18.8c3.36.42 6.18 1.36 8.38 2.65V21.95C13.18 20.15 8.38 19.66 0 19.66v-7.14h8.38c8.83 0 16.4 1.45 22.38 6.15v32.87c-5.91 4.67-13.5 6.06-22.38 6.06H0v6.97h8.38c12.27 0 22.52-2.42 30.76-10.19V10.22C31.12 2.6 20.65 0 8.38 0H0v33.44z"/>
</svg>
